<svg width="45" height="42" viewBox="0 0 45 42" fill="none" xmlns="http://www.w3.org/2000/svg">
<path d="M22.5009 41.2527C22.2252 41.2527 21.9627 41.1309 21.7827 40.919L0.220224 15.3084C-0.0291514 15.0121 -0.0704014 14.5921 0.115224 14.2546L7.67522 0.490239C7.84022 0.190239 8.15522 0.00273895 8.49647 0.00273895H36.5052C36.8484 0.00273895 37.1633 0.190239 37.3265 0.490239L44.8846 14.2546C45.0721 14.594 45.029 15.0121 44.7796 15.3084L23.2171 40.919C23.039 41.1309 22.7765 41.2527 22.5009 41.2527ZM2.07085 14.5921L22.5009 38.8602L42.9309 14.5921L35.9502 1.87774H9.05147L2.07085 14.5921Z" fill="white"/>
<path d="M43.5949 15.9402H1.40736C0.889856 15.9402 0.469856 15.5202 0.469856 15.0027C0.469856 14.4852 0.889856 14.0652 1.40736 14.0652H43.5949C44.1124 14.0652 44.5324 14.4852 44.5324 15.0027C44.5324 15.5202 44.1124 15.9402 43.5949 15.9402Z" fill="white"/>
<path d="M31.9924 15.4134C31.6981 15.4134 31.4074 15.2746 31.2256 15.014L22.5049 2.57711L13.8949 14.9484C13.6024 15.374 13.0156 15.4771 12.5918 15.1827C12.1643 14.8865 12.0612 14.3034 12.3574 13.8777L21.7324 0.403989C21.9068 0.152739 22.1937 0.00273895 22.4993 0.00273895H22.5012C22.8068 0.00273895 23.0918 0.150864 23.2681 0.402114L32.7593 13.9377C33.0574 14.3634 32.9543 14.9465 32.5306 15.2427C32.3693 15.3571 32.1799 15.4134 31.9924 15.4134Z" fill="white"/>
<path d="M22.5009 41.2527C22.1034 41.2527 21.7512 41.0034 21.618 40.6302L7.61367 1.25525C7.44117 0.765871 7.69617 0.229621 8.1818 0.057121C8.67305 -0.122879 9.20742 0.137746 9.37992 0.625246L22.5012 37.5177L35.6224 0.625246C35.7949 0.139621 36.3293 -0.119129 36.8205 0.057121C37.308 0.229621 37.563 0.765871 37.3887 1.25525L23.3843 40.6302C23.2512 41.0034 22.8983 41.2527 22.5009 41.2527Z" fill="white"/>
</svg>
