<svg width="45" height="45" viewBox="0 0 45 45" fill="none" xmlns="http://www.w3.org/2000/svg">
<path d="M22.5046 0H22.4954C10.0717 0 0 10.0737 0 22.5C0 34.9266 10.0717 45 22.4954 45H22.5046C34.9283 45 45 34.9266 45 22.5C45 10.0737 34.9283 0 22.5046 0ZM41.8099 14.25H31.8586C31.2783 12.1674 30.4695 10.155 29.4465 8.25H37.9087C39.5416 10.0129 40.8612 12.0421 41.8099 14.25ZM22.4976 1.74463C24.1372 3.22449 25.5827 4.90649 26.7986 6.75H18.2017C19.4162 4.90649 20.8595 3.22449 22.4976 1.74463ZM16.4051 6.75H8.63899C11.9412 3.8291 16.0822 2.02661 20.47 1.60071C18.9179 3.15161 17.5537 4.88013 16.4051 6.75ZM24.5289 1.59924C28.9204 2.02368 33.0651 3.82654 36.3698 6.75H28.5964C27.4471 4.87939 26.0821 3.15051 24.5289 1.59924ZM27.7279 8.25C28.823 10.1415 29.6915 12.1553 30.3157 14.25H14.6927C15.3137 12.1556 16.1803 10.1415 17.2736 8.25H27.7279ZM7.10048 8.25H15.5557C14.5345 10.155 13.7276 12.1674 13.1494 14.25H3.19893C4.14759 12.0421 5.46715 10.0129 7.10048 8.25ZM2.6274 15.75H42.3814C43.873 20.1266 43.873 24.8738 42.3814 29.25H2.6274C1.13576 24.8738 1.13576 20.1266 2.6274 15.75ZM22.4984 43.2557C20.8603 41.7759 19.4162 40.0939 18.2017 38.25H26.7986C25.5827 40.0939 24.1379 41.7759 22.4984 43.2557ZM28.5964 38.25H36.3698C33.0632 41.1749 28.916 42.9778 24.5224 43.4011C26.0777 41.8499 27.4452 40.121 28.5964 38.25ZM20.47 43.3997C16.0822 42.9734 11.9412 41.1713 8.63899 38.25H16.4051C17.5537 40.1202 18.9179 41.8484 20.47 43.3997ZM17.2736 36.75C16.1803 34.8585 15.3137 32.8447 14.6927 30.75H30.3157C29.6915 32.8447 28.823 34.8585 27.7279 36.75H17.2736ZM3.19893 30.75H13.1494C13.7276 32.8326 14.5345 34.845 15.5557 36.75H7.10048C5.46715 34.9874 4.14759 32.9579 3.19893 30.75ZM37.9087 36.75H29.4465C30.4695 34.8453 31.2783 32.833 31.8586 30.75H41.8099C40.8612 32.9579 39.5416 34.9874 37.9087 36.75Z" fill="white"/>
<path d="M6.03103 26.4473C6.11927 26.7703 6.41035 26.9959 6.745 26.9999H6.75489C7.08587 26.9999 7.37805 26.7827 7.47324 26.4652L9.00443 21.3599L10.5356 26.4652C10.6304 26.7827 10.9226 26.9999 11.254 26.9999H11.2635C11.5981 26.9959 11.8896 26.7703 11.9775 26.4473L14.227 18.1973L12.7797 17.8029L11.2192 23.5253L9.71949 18.535C9.62466 18.2175 9.33248 17.9999 9.00113 17.9999C8.67014 17.9999 8.37797 18.2175 8.28277 18.535L6.78308 23.5253L5.22297 17.8029L3.77563 18.1973L6.03103 26.4473Z" fill="white"/>
<path d="M20.247 26.9999H20.2568C20.5878 26.9999 20.88 26.7827 20.9752 26.4652L22.5064 21.3599L24.0376 26.4652C24.1324 26.7827 24.4246 26.9999 24.7559 26.9999H24.7654C25.1001 26.9959 25.3915 26.7703 25.4794 26.4473L27.7289 18.1973L26.2816 17.8029L24.7211 23.5253L23.2214 18.535C23.1266 18.2175 22.8344 17.9999 22.5031 17.9999C22.1721 17.9999 21.8799 18.2175 21.7847 18.535L20.285 23.5253L18.7249 17.8029L17.2776 18.1973L19.5271 26.4473C19.6157 26.7725 19.9101 26.9984 20.247 26.9999Z" fill="white"/>
<path d="M33.7423 26.9999H33.7522C34.0832 26.9999 34.3754 26.7827 34.4706 26.4652L36.0017 21.3599L37.5329 26.4652C37.6278 26.7827 37.9199 26.9999 38.2513 26.9999H38.2608C38.5955 26.9959 38.8869 26.7703 38.9748 26.4473L41.2243 18.1973L39.777 17.8029L38.2165 23.5253L36.7168 18.535C36.622 18.2175 36.3298 17.9999 35.9984 17.9999C35.6675 17.9999 35.3753 18.2175 35.2801 18.535L33.7804 23.5253L32.2203 17.8029L30.7729 18.1973L33.0225 26.4473C33.1111 26.7725 33.4055 26.9984 33.7423 26.9999Z" fill="white"/>
</svg>
