<svg width="45" height="45" viewBox="0 0 45 45" fill="none" xmlns="http://www.w3.org/2000/svg">
<path d="M22.5012 0C10.0935 0 0 10.0927 0 22.4991C0 34.9063 10.094 45 22.5007 45C34.9069 45 45 34.9063 45 22.4991C45.0005 10.0932 34.9074 0 22.5012 0ZM2.27064 22.4991C2.27064 19.5669 2.89956 16.782 4.02226 14.2668L13.6725 40.7057C6.92462 37.4261 2.27064 30.5064 2.27064 22.4991ZM22.5012 42.7299C20.5153 42.7299 18.5986 42.4386 16.7862 41.9056L22.8556 24.2689L29.0751 41.3042C29.1153 41.4048 29.1644 41.4964 29.2191 41.5829C27.1163 42.3226 24.8569 42.7299 22.5012 42.7299ZM25.2885 13.0147C26.5061 12.9506 27.6045 12.822 27.6045 12.822C28.694 12.693 28.5664 11.0915 27.475 11.1555C27.475 11.1555 24.1985 11.4123 22.0827 11.4123C20.0954 11.4123 16.754 11.1555 16.754 11.1555C15.6635 11.0915 15.5363 12.7579 16.6263 12.822C16.6263 12.822 17.6587 12.9506 18.7478 13.0147L21.8994 21.6504L17.4722 34.9274L10.1066 13.0151C11.3261 12.9515 12.4221 12.8225 12.4221 12.8225C13.5116 12.6939 13.3831 11.0915 12.2922 11.157C12.2922 11.157 9.01711 11.4137 6.90078 11.4137C6.52062 11.4137 6.07313 11.4038 5.59899 11.3893C9.21537 5.89666 15.4339 2.27057 22.5012 2.27057C27.7686 2.27057 32.5634 4.28398 36.162 7.58089C36.0745 7.57622 35.9899 7.56453 35.8992 7.56453C33.9128 7.56453 32.5026 9.29551 32.5026 11.1551C32.5026 12.8215 33.4635 14.2327 34.4889 15.8992C35.2591 17.2467 36.1568 18.9782 36.1568 21.4783C36.1568 23.2103 35.4919 25.219 34.617 28.0179L32.5994 34.7609L25.2885 13.0147ZM32.6709 39.9857L38.8502 22.1203C40.0056 19.2349 40.3886 16.9274 40.3886 14.8742C40.3886 14.1303 40.3399 13.4387 40.252 12.794C41.8325 15.6757 42.7317 18.9829 42.7308 22.5C42.7303 29.9626 38.6847 36.4788 32.6709 39.9857Z" fill="white"/>
</svg>
