<svg width="44" height="45" viewBox="0 0 44 45" fill="none" xmlns="http://www.w3.org/2000/svg">
<path d="M43.0619 27.4313L38.9257 24.1969C38.9781 23.6981 39.0232 23.1151 39.0232 22.4982C39.0232 21.8813 38.98 21.2982 38.9257 20.7994L43.0657 17.5632C43.8345 16.9557 44.0444 15.8775 43.5551 14.9795L39.2538 7.5375C38.7944 6.69753 37.7875 6.26625 36.7657 6.64313L31.885 8.60247C30.9494 7.92747 29.9687 7.3575 28.9544 6.90188L28.2119 1.72503C28.09 0.7425 27.235 0 26.2244 0H17.5995C16.5888 0 15.7357 0.7425 15.6157 1.71L14.8713 6.90565C13.8888 7.34818 12.9232 7.91068 11.9463 8.60625L7.05258 6.64128C6.13562 6.2869 5.03875 6.68435 4.58312 7.52063L0.276305 14.9719C-0.231791 15.8307 -0.0218204 16.9463 0.763834 17.5688L4.90005 20.8032C4.8344 21.435 4.80258 21.9844 4.80258 22.5001C4.80258 23.0157 4.83449 23.5651 4.90005 24.1988L0.760055 27.4351C-0.00872472 28.0444 -0.21685 29.1226 0.272525 30.0188L4.5738 37.4607C5.03321 38.2988 6.03068 38.7337 7.0619 38.355L11.9426 36.3957C12.8763 37.0688 13.8569 37.6388 14.8713 38.0963L15.6138 43.2713C15.7357 44.2575 16.5888 45 17.6013 45H26.2263C27.2369 45 28.0919 44.2575 28.2119 43.29L28.9562 38.0963C29.9388 37.6519 30.9025 37.0912 31.8812 36.3937L36.775 38.3587C37.0112 38.4506 37.2569 38.4975 37.51 38.4975C38.2375 38.4975 38.9069 38.1 39.2444 37.4812L43.5644 30C44.0444 29.1225 43.8344 28.0444 43.0619 27.4313ZM21.9119 30C17.7757 30 14.4119 26.6362 14.4119 22.5C14.4119 18.3638 17.7757 15 21.9119 15C26.0481 15 29.4119 18.3638 29.4119 22.5C29.4119 26.6362 26.0481 30 21.9119 30Z" fill="white"/>
</svg>
