<svg width="45" height="45" viewBox="0 0 45 45" fill="none" xmlns="http://www.w3.org/2000/svg">
<path d="M39.7266 1.50189V40.4998C39.7266 41.1058 39.4058 41.6528 38.9127 41.8857C38.3994 42.1247 37.8404 41.9747 37.4757 41.5608C37.379 41.4498 27.893 31.0223 18.457 30.0924V11.9103C27.9088 10.9814 37.379 0.551938 37.4757 0.440944C37.8536 0.0119669 38.4196 -0.120026 38.9127 0.115961C39.4058 0.347949 39.7266 0.89592 39.7266 1.50189Z" fill="white"/>
<path d="M45 21.0004C45 23.2173 43.9383 25.1562 42.3633 26.1952V15.8057C43.9383 16.8446 45 18.7835 45 21.0004Z" fill="white"/>
<path d="M20.4669 38.3847C20.7153 37.998 20.7862 37.4999 20.6574 37.043C20.2884 35.7276 20.0353 34.4866 19.8985 33.3477C19.0064 33.1451 18.1125 33.0134 17.2254 33.0065C17.3044 33.9565 17.4349 34.9449 17.6603 36.0001H15.7035C15.4316 35.0466 15.1758 34.0487 14.9773 33.0003H7.91152C7.5546 33.0003 7.2171 32.9199 6.86914 32.8804C7.53166 38.8288 9.23454 43.8011 9.32384 44.0564C9.52467 44.6262 10.0088 44.9998 10.5482 44.9998H17.14C18.1647 44.9998 18.7967 43.725 18.2704 42.7294C18.2537 42.6974 17.5047 41.218 16.6821 39.0001H19.4021C19.8231 39 20.2183 38.7715 20.4669 38.3847Z" fill="white"/>
<path d="M7.91016 30.0004H15.8203V12.0015H7.91016C3.54823 12.0015 0 16.0383 0 21.0009C0 25.9635 3.54823 30.0004 7.91016 30.0004Z" fill="white"/>
</svg>
