<svg width="50" height="50" viewBox="0 0 50 50" fill="none" xmlns="http://www.w3.org/2000/svg">
<path d="M25.0013 0C11.215 0 0 11.2142 0 24.999C0 38.7848 11.2155 50 25.0008 50C38.7855 50 50 38.7848 50 24.999C50.0005 11.2147 38.786 0 25.0013 0ZM2.52294 24.999C2.52294 21.741 3.22173 18.6466 4.46917 15.852L15.1917 45.2286C7.69403 41.5846 2.52294 33.896 2.52294 24.999ZM25.0013 47.4777C22.7948 47.4777 20.6651 47.154 18.6514 46.5617L25.3951 26.9654L32.3057 45.8936C32.3503 46.0053 32.4049 46.1071 32.4657 46.2032C30.1293 47.0252 27.6188 47.4777 25.0013 47.4777ZM28.0983 14.4607C29.4513 14.3895 30.6717 14.2467 30.6717 14.2467C31.8822 14.1033 31.7404 12.3239 30.5278 12.3951C30.5278 12.3951 26.8873 12.6803 24.5363 12.6803C22.3282 12.6803 18.6155 12.3951 18.6155 12.3951C17.4039 12.3239 17.2626 14.1755 18.4737 14.2467C18.4737 14.2467 19.6208 14.3895 20.8309 14.4607L24.3326 24.056L19.4135 38.8082L11.2296 14.4612C12.5846 14.3906 13.8024 14.2472 13.8024 14.2472C15.0129 14.1043 14.8701 12.3239 13.6579 12.3966C13.6579 12.3966 10.019 12.6818 7.66753 12.6818C7.24513 12.6818 6.74792 12.6709 6.2211 12.6548C10.2393 6.55185 17.1488 2.52286 25.0013 2.52286C30.854 2.52286 36.1815 4.75998 40.18 8.42321C40.0828 8.41802 39.9888 8.40503 39.888 8.40503C37.6809 8.40503 36.114 10.3283 36.114 12.3945C36.114 14.2462 37.1817 15.8141 38.321 17.6657C39.1767 19.163 40.1743 21.0869 40.1743 23.8648C40.1743 25.7892 39.4355 28.0211 38.4634 31.131L36.2215 38.6232L28.0983 14.4607ZM36.301 44.4285L43.1669 24.5781C44.4507 21.3721 44.8762 18.8082 44.8762 16.5269C44.8762 15.7003 44.8222 14.9319 44.7245 14.2155C46.4806 17.4174 47.4797 21.0921 47.4786 25C47.4781 33.2918 42.983 40.532 36.301 44.4285Z" fill="white"/>
</svg>
