<svg width="45" height="45" viewBox="0 0 45 45" fill="none" xmlns="http://www.w3.org/2000/svg">
<path d="M9.73775 15.4777C9.88637 15.626 10.0776 15.6978 10.2705 15.6978C10.4727 15.6978 10.6768 15.619 10.8356 15.4667C10.9841 15.3243 11.176 15.2531 11.3678 15.2531C11.5645 15.2531 11.7611 15.328 11.9111 15.4776L14.4674 18.0278C14.8346 18.394 14.8345 18.9879 14.4674 19.3542C14.3604 19.4609 14.2856 19.5871 14.241 19.7212H16.8504L23.6178 12.97L22.9072 12.2612C22.7236 12.078 22.483 11.9864 22.2424 11.9864C22.0017 11.9864 21.7612 12.078 21.5776 12.2612C21.394 12.4444 21.1534 12.5359 20.9128 12.5359C20.6721 12.5359 20.4316 12.4444 20.248 12.2612L17.6916 9.71096C17.3871 9.40721 17.4044 8.92548 17.7027 8.61576C17.78 8.53542 17.8357 8.44226 17.8711 8.34347C17.9681 8.07303 17.9088 7.75935 17.6917 7.54279L11.828 1.69314C9.40895 -0.725875 5.81158 -0.362096 3.86779 1.58169C1.08869 4.36079 2.26616 8.02047 3.81462 9.56884L9.73775 15.4777Z" fill="white"/>
<path d="M42.5916 22.3486H1.99934C0.895166 22.3486 0 23.2438 0 24.348V43.5038C0 44.3509 0.624287 44.9997 1.49959 44.9997H43.0914C44.0561 44.9997 44.5909 44.2226 44.5909 43.5038V24.348C44.591 23.2438 43.6958 22.3486 42.5916 22.3486Z" fill="white"/>
<path d="M20.5771 19.7212H31.2907L33.2591 17.7567C33.9885 17.9407 34.7607 18.0174 35.5584 17.966C39.2342 17.729 42.2026 14.7754 42.455 11.1005C42.5188 10.1726 42.4097 9.27897 42.1583 8.44691C42.0253 8.0064 41.4653 7.87228 41.1396 8.19739L36.488 12.8399L32.832 9.19266L37.5029 4.53094C37.828 4.20645 37.6961 3.64791 37.2573 3.51212C36.4155 3.2517 35.5098 3.13709 34.5687 3.20002C30.8074 3.45156 27.8134 6.54645 27.6791 10.3138C27.6533 11.0407 27.7329 11.7449 27.903 12.4131L20.5771 19.7212Z" fill="white"/>
</svg>
